HIERARCHY
ROOT Hips
{
  OFFSET -271.218 72.5554 1563.86
  CHANNELS 6 Xposition Yposition Zposition Zrotation Xrotation Yrotation
  JOINT Spine
  {
    OFFSET 0 8 0
    CHANNELS 6 Xposition Yposition Zposition Zrotation Xrotation Yrotation
    JOINT Spine1
    {
      OFFSET 0 8 0
      CHANNELS 6 Xposition Yposition Zposition Zrotation Xrotation Yrotation
      JOINT Spine2
      {
        OFFSET 0 8 0
        CHANNELS 6 Xposition Yposition Zposition Zrotation Xrotation Yrotation
        JOINT Spine3
        {
          OFFSET 0 8 0
          CHANNELS 6 Xposition Yposition Zposition Zrotation Xrotation Yrotation
          JOINT Neck
          {
            OFFSET 0 17 0
            CHANNELS 6 Xposition Yposition Zposition Zrotation Xrotation Yrotation
            JOINT Head
            {
              OFFSET 0 10.8 0
              CHANNELS 6 Xposition Yposition Zposition Zrotation Xrotation Yrotation
              End Site
              {
                OFFSET 0 20.25 0
              }
            }
          }
          JOINT LeftShoulder
          {
            OFFSET 5 17 0
            CHANNELS 6 Xposition Yposition Zposition Zrotation Xrotation Yrotation
            JOINT LeftShoulder2
            {
              OFFSET 6.45 0 0
              CHANNELS 6 Xposition Yposition Zposition Zrotation Xrotation Yrotation
              JOINT LeftArm
              {
                OFFSET 6.45 0 0
                CHANNELS 6 Xposition Yposition Zposition Zrotation Xrotation Yrotation
                JOINT LeftForeArm
                {
                  OFFSET 0 -32.4 -2
                  CHANNELS 6 Xposition Yposition Zposition Zrotation Xrotation Yrotation
                  JOINT LeftHand
                  {
                    OFFSET 0 -25.65 2
                    CHANNELS 6 Xposition Yposition Zposition Zrotation Xrotation Yrotation
                    JOINT LeftHandThumb1
                    {
                      OFFSET -0.5 -1.5 2.65
                      CHANNELS 6 Xposition Yposition Zposition Zrotation Xrotation Yrotation
                      JOINT LeftHandThumb2
                      {
                        OFFSET 0 -3.8 3.7
                        CHANNELS 6 Xposition Yposition Zposition Zrotation Xrotation Yrotation
                        JOINT LeftHandThumb3
                        {
                          OFFSET 0 -3 2.7
                          CHANNELS 6 Xposition Yposition Zposition Zrotation Xrotation Yrotation
                          End Site
                          {
                            OFFSET 0 -2.3 1.8
                          }
                        }
                      }
                    }
                    JOINT LeftHandIndex
                    {
                      OFFSET 0 -1.9 1.6
                      CHANNELS 6 Xposition Yposition Zposition Zrotation Xrotation Yrotation
                      JOINT LeftHandIndex1
                      {
                        OFFSET 0 -8.3 1.9
                        CHANNELS 6 Xposition Yposition Zposition Zrotation Xrotation Yrotation
                        JOINT LeftHandIndex2
                        {
                          OFFSET 0 -4.5 0
                          CHANNELS 6 Xposition Yposition Zposition Zrotation Xrotation Yrotation
                          JOINT LeftHandIndex3
                          {
                            OFFSET 0 -3.4 0
                            CHANNELS 6 Xposition Yposition Zposition Zrotation Xrotation Yrotation
                            End Site
                            {
                              OFFSET 0 -2.6 0
                            }
                          }
                        }
                      }
                    }
                    JOINT LeftHandMiddle
                    {
                      OFFSET -0.25 -2.2 0.4
                      CHANNELS 6 Xposition Yposition Zposition Zrotation Xrotation Yrotation
                      JOINT LeftHandMiddle1
                      {
                        OFFSET 0 -8.3 1
                        CHANNELS 6 Xposition Yposition Zposition Zrotation Xrotation Yrotation
                        JOINT LeftHandMiddle2
                        {
                          OFFSET 0 -4.65 0
                          CHANNELS 6 Xposition Yposition Zposition Zrotation Xrotation Yrotation
                          JOINT LeftHandMiddle3
                          {
                            OFFSET 0 -3.3 0
                            CHANNELS 6 Xposition Yposition Zposition Zrotation Xrotation Yrotation
                            End Site
                            {
                              OFFSET 0 -2.7 0
                            }
                          }
                        }
                      }
                    }
                    JOINT LeftHandRing
                    {
                      OFFSET -0.5 -2.15 -0.8
                      CHANNELS 6 Xposition Yposition Zposition Zrotation Xrotation Yrotation
                      JOINT LeftHandRing1
                      {
                        OFFSET 0 -7.75 -0.2
                        CHANNELS 6 Xposition Yposition Zposition Zrotation Xrotation Yrotation
                        JOINT LeftHandRing2
                        {
                          OFFSET 0 -3.8 0
                          CHANNELS 6 Xposition Yposition Zposition Zrotation Xrotation Yrotation
                          JOINT LeftHandRing3
                          {
                            OFFSET 0 -3.4 0
                            CHANNELS 6 Xposition Yposition Zposition Zrotation Xrotation Yrotation
                            End Site
                            {
                              OFFSET 0 -2.6 0
                            }
                          }
                        }
                      }
                    }
                    JOINT LeftHandPinky
                    {
                      OFFSET -0.75 -1.75 -1.85
                      CHANNELS 6 Xposition Yposition Zposition Zrotation Xrotation Yrotation
                      JOINT LeftHandPinky1
                      {
                        OFFSET 0 -7.15 -1
                        CHANNELS 6 Xposition Yposition Zposition Zrotation Xrotation Yrotation
                        JOINT LeftHandPinky2
                        {
                          OFFSET 0 -3 0
                          CHANNELS 6 Xposition Yposition Zposition Zrotation Xrotation Yrotation
                          JOINT LeftHandPinky3
                          {
                            OFFSET 0 -2.35 0
                            CHANNELS 6 Xposition Yposition Zposition Zrotation Xrotation Yrotation
                            End Site
                            {
                              OFFSET 0 -2.1 0
                            }
                          }
                        }
                      }
                    }
                  }
                }
              }
            }
          }
          JOINT RightShoulder
          {
            OFFSET -5 17 0
            CHANNELS 6 Xposition Yposition Zposition Zrotation Xrotation Yrotation
            JOINT RightShoulder2
            {
              OFFSET -6.45 0 0
              CHANNELS 6 Xposition Yposition Zposition Zrotation Xrotation Yrotation
              JOINT RightArm
              {
                OFFSET -6.45 0 0
                CHANNELS 6 Xposition Yposition Zposition Zrotation Xrotation Yrotation
                JOINT RightForeArm
                {
                  OFFSET 0 -32.4 -2
                  CHANNELS 6 Xposition Yposition Zposition Zrotation Xrotation Yrotation
                  JOINT RightHand
                  {
                    OFFSET 0 -25.65 2
                    CHANNELS 6 Xposition Yposition Zposition Zrotation Xrotation Yrotation
                    JOINT RightHandThumb1
                    {
                      OFFSET 0.5 -1.5 2.65
                      CHANNELS 6 Xposition Yposition Zposition Zrotation Xrotation Yrotation
                      JOINT RightHandThumb2
                      {
                        OFFSET 0 -3.8 3.7
                        CHANNELS 6 Xposition Yposition Zposition Zrotation Xrotation Yrotation
                        JOINT RightHandThumb3
                        {
                          OFFSET 0 -3 2.7
                          CHANNELS 6 Xposition Yposition Zposition Zrotation Xrotation Yrotation
                          End Site
                          {
                            OFFSET 0 -2.3 1.8
                          }
                        }
                      }
                    }
                    JOINT RightHandIndex
                    {
                      OFFSET 0 -1.9 1.6
                      CHANNELS 6 Xposition Yposition Zposition Zrotation Xrotation Yrotation
                      JOINT RightHandIndex1
                      {
                        OFFSET 0 -8.3 1.9
                        CHANNELS 6 Xposition Yposition Zposition Zrotation Xrotation Yrotation
                        JOINT RightHandIndex2
                        {
                          OFFSET 0 -4.5 0
                          CHANNELS 6 Xposition Yposition Zposition Zrotation Xrotation Yrotation
                          JOINT RightHandIndex3
                          {
                            OFFSET 0 -3.4 0
                            CHANNELS 6 Xposition Yposition Zposition Zrotation Xrotation Yrotation
                            End Site
                            {
                              OFFSET 0 -2.6 0
                            }
                          }
                        }
                      }
                    }
                    JOINT RightHandMiddle
                    {
                      OFFSET 0.25 -2.2 0.4
                      CHANNELS 6 Xposition Yposition Zposition Zrotation Xrotation Yrotation
                      JOINT RightHandMiddle1
                      {
                        OFFSET 0 -8.3 1
                        CHANNELS 6 Xposition Yposition Zposition Zrotation Xrotation Yrotation
                        JOINT RightHandMiddle2
                        {
                          OFFSET 0 -4.65 0
                          CHANNELS 6 Xposition Yposition Zposition Zrotation Xrotation Yrotation
                          JOINT RightHandMiddle3
                          {
                            OFFSET 0 -3.3 0
                            CHANNELS 6 Xposition Yposition Zposition Zrotation Xrotation Yrotation
                            End Site
                            {
                              OFFSET 0 -2.7 0
                            }
                          }
                        }
                      }
                    }
                    JOINT RightHandRing
                    {
                      OFFSET 0.5 -2.15 -0.8
                      CHANNELS 6 Xposition Yposition Zposition Zrotation Xrotation Yrotation
                      JOINT RightHandRing1
                      {
                        OFFSET 0 -7.75 -0.2
                        CHANNELS 6 Xposition Yposition Zposition Zrotation Xrotation Yrotation
                        JOINT RightHandRing2
                        {
                          OFFSET 0 -3.8 0
                          CHANNELS 6 Xposition Yposition Zposition Zrotation Xrotation Yrotation
                          JOINT RightHandRing3
                          {
                            OFFSET 0 -3.4 0
                            CHANNELS 6 Xposition Yposition Zposition Zrotation Xrotation Yrotation
                            End Site
                            {
                              OFFSET 0 -2.6 0
                            }
                          }
                        }
                      }
                    }
                    JOINT RightHandPinky
                    {
                      OFFSET 0.75 -1.75 -1.85
                      CHANNELS 6 Xposition Yposition Zposition Zrotation Xrotation Yrotation
                      JOINT RightHandPinky1
                      {
                        OFFSET 0 -7.15 -1
                        CHANNELS 6 Xposition Yposition Zposition Zrotation Xrotation Yrotation
                        JOINT RightHandPinky2
                        {
                          OFFSET 0 -3 0
                          CHANNELS 6 Xposition Yposition Zposition Zrotation Xrotation Yrotation
                          JOINT RightHandPinky3
                          {
                            OFFSET 0 -2.35 0
                            CHANNELS 6 Xposition Yposition Zposition Zrotation Xrotation Yrotation
                            End Site
                            {
                              OFFSET 0 -2.1 0
                            }
                          }
                        }
                      }
                    }
                  }
                }
              }
            }
          }
        }
      }
    }
  }
  JOINT LeftUpLeg
  {
    OFFSET 8 0 0
    CHANNELS 6 Xposition Yposition Zposition Zrotation Xrotation Yrotation
    JOINT LeftLeg
    {
      OFFSET 13.6239 -41.342 -6.98189
      CHANNELS 6 Xposition Yposition Zposition Zrotation Xrotation Yrotation
      JOINT LeftFoot
      {
        OFFSET 0 -41 -2
        CHANNELS 6 Xposition Yposition Zposition Zrotation Xrotation Yrotation
        JOINT LeftToeBase
        {
          OFFSET 0 -7.5 12.5
          CHANNELS 6 Xposition Yposition Zposition Zrotation Xrotation Yrotation
          JOINT LeftFootToe
          {
            OFFSET 0 0 4
            CHANNELS 6 Xposition Yposition Zposition Zrotation Xrotation Yrotation
            End Site
            {
              OFFSET 0 0 0
            }
          }
        }
      }
    }
  }
  JOINT RightUpLeg
  {
    OFFSET -8 0 0
    CHANNELS 6 Xposition Yposition Zposition Zrotation Xrotation Yrotation
    JOINT RightLeg
    {
      OFFSET 0 -45 -1
      CHANNELS 6 Xposition Yposition Zposition Zrotation Xrotation Yrotation
      JOINT RightFoot
      {
        OFFSET 0 -41 -2
        CHANNELS 6 Xposition Yposition Zposition Zrotation Xrotation Yrotation
        JOINT RightToeBase
        {
          OFFSET 0 -7.5 12.5
          CHANNELS 6 Xposition Yposition Zposition Zrotation Xrotation Yrotation
          JOINT RightFootToe
          {
            OFFSET 0 0 4
            CHANNELS 6 Xposition Yposition Zposition Zrotation Xrotation Yrotation
            End Site
            {
              OFFSET 0 0 0
            }
          }
        }
      }
    }
  }
}
MOTION
Frames:	3
Frame Time:	0.0111111
-277.091 84.9106 1564.79 1.32861 0.079956 -174.414 -1.13687e-13 8 0 -0.237158 20.3115 -2.69722 0 8 2.27374e-13 1.2778 7.32765 -1.13803 0 8 0 0.620029 3.67099 -0.548045 5.68434e-14 8 -2.27374e-13 0.618652 3.66312 -0.546872 0 17 0 6.62864 2.47592 -13.5062 -1.13687e-13 10.8 0 16.2471 3.20736 -32.2407 5 17 4.54747e-13 2.98087 -1.67444 -6.14528 6.45 -1.13687e-13 -2.27374e-13 0.17624 -0.59425 1.57339 6.45 0 0 56.7294 27.8915 14.5944 -5.68434e-14 -32.4 -2 -119.878 -46.3443 -140.355 0 -25.65 2 18.6785 -7.12775 -37.9941 -0.5 -1.5 2.65 -21.8037 -48.9121 128.288 0 -3.8 3.7 -0.0472426 48.4757 0.00908877 -5.68434e-14 -3 2.7 -0.0241226 63.3925 0.0274269 -2.27374e-13 -1.9 1.6 -1.76556e-31 6.36111e-15 1.59028e-15 1.13687e-13 -8.3 1.9 -36.3846 11.5211 4.48359 -2.27374e-13 -4.5 5.68434e-14 -82.5018 -0.00246216 -0.000408772 1.13687e-13 -3.4 5.68434e-14 -70.5405 -0.00363298 -0.00497415 -0.25 -2.2 0.4 -1.76556e-31 6.36111e-15 1.59028e-15 2.27374e-13 -8.3 1 -52.5873 10.8854 7.77059 -2.27374e-13 -4.65 0 -77.1864 0.00271979 -0.0020785 1.13687e-13 -3.3 0 -90.0002 -5.1684e-14 -4.77083e-15 -0.5 -2.15 -0.8 -1.76556e-31 6.36111e-15 1.59028e-15 0 -7.75 -0.2 -85.733 -1.05714 12.1894 2.27374e-13 -3.8 0 -30.5889 0.00614493 0.000850312 0 -3.4 -1.13687e-13 -90.0002 -0.000671387 -3.18055e-15 -0.75 -1.75 -1.85 -1.76556e-31 6.36111e-15 1.59028e-15 -2.27374e-13 -7.15 -1 -85.5162 3.39684 15.052 -2.27374e-13 -3 5.68434e-14 -70.6469 0.000791961 -0.00920214 1.42109e-14 -2.35 -1.13687e-13 -90.0002 1.43125e-14 -1.11319e-14 -5 17 0 14.6491 -7.18078 -4.26738 -6.45 -1.13687e-13 0 -2.02271 0.747535 -1.87092 -6.45 0 0 -35.1618 8.60981 -15.133 -5.68434e-14 -32.4 -2 1.56596 -42.0212 9.6658 0 -25.65 2 -32.0568 -13.4889 6.74851 0.5 -1.5 2.65 26.2234 3.56228 22.6309 0 -3.8 3.7 1.40478 31.8702 -0.529091 -1.13687e-13 -3 2.7 0.0848923 14.9792 -0.0965698 2.84217e-14 -1.9 1.6 -8.34896e-15 0 -0 0 -8.3 1.9 0.127792 -3.02976 -0.00232654 -2.84217e-14 -4.5 2.27374e-13 18.4923 0.000121131 0.0195845 -1.13687e-13 -3.4 0 14.8806 0.00256734 0.0128173 0.25 -2.2 0.4 -8.34896e-15 0 -0 0 -8.3 1 2.10575 -2.45507 -0.0517368 0 -4.65 2.27374e-13 30.8768 0.0209964 0.047737 -1.13687e-13 -3.3 0 22.607 0.0225439 0.021922 0.5 -2.15 -0.8 -8.34896e-15 0 -0 0 -7.75 -0.2 8.2563 11.6792 -1.34771 2.84217e-14 -3.8 0 20.5031 -0.0439631 -0.0693847 5.68434e-14 -3.4 0 16.1554 -0.0402133 -0.0369212 0.75 -1.75 -1.85 -8.34896e-15 0 -0 2.84217e-14 -7.15 -1 9.93535 5.6387 -0.702631 5.68434e-14 -3 4.54747e-13 48.1639 0.0222731 0.0285152 1.13687e-13 -2.35 0 33.3524 0.0226373 0.00763839 8 0 2.27374e-13 -32.38 -41.0903 -39.1261 13.6239 -41.342 -6.98189 -0.618196 56.2009 1.20444 -2.27374e-13 -41 -2 -0.814448 3.65712 -14.7152 0 -7.5 12.5 -7.95139e-16 0 -3.18055e-15 0 -5.68434e-14 4 2.30259 1.51944 71.9218 -8 1.42109e-14 0 -1.26341 -41.1976 -3.07372 5.68434e-14 -45 -1 0.324522 44.774 -0.992677 1.13687e-13 -41 -2 1.71299 7.60184 -4.6811 -1.13687e-13 -7.5 12.5 -2.39696e-16 -11.2299 8.1066e-16 5.68434e-14 -6.66134e-16 4 -4.8822 9.58709 62.4399 
-277.136 84.5005 1565.75 1.34619 0.102856 -174.238 -1.13687e-13 8 2.27374e-13 0.0110454 19.9738 -2.59365 -5.68434e-14 8 -2.27374e-13 1.28501 7.38435 -1.10092 -1.13687e-13 8 0 0.624068 3.69932 -0.529211 0 8 -2.27374e-13 0.622657 3.69127 -0.52805 -5.68434e-14 17 -2.27374e-13 6.60765 2.50156 -13.573 -1.13687e-13 10.8 -2.27374e-13 16.2114 3.26077 -32.4058 5 17 2.27374e-13 3.07427 -1.60353 -6.09584 6.45 -1.13687e-13 -2.27374e-13 0.167739 -0.572967 1.55786 6.45 0 0 57.3835 27.1123 14.0602 -5.68434e-14 -32.4 -2 -120.45 -46.6377 -140.286 -2.27374e-13 -25.65 2 18.5918 -7.0927 -37.9255 -0.5 -1.5 2.65 -21.8212 -48.9087 128.293 -2.84217e-14 -3.8 3.7 -0.0472211 48.3859 0.00907272 -2.84217e-14 -3 2.7 -0.0248702 64.0753 0.0280973 -2.27374e-13 -1.9 1.6 3.18055e-15 3.18055e-15 4.77083e-15 2.27374e-13 -8.3 1.9 -36.3964 11.504 4.47911 -4.54747e-13 -4.5 1.13687e-13 -82.5241 -0.00246216 -0.000408772 0 -3.4 1.13687e-13 -70.5844 -0.00363298 -0.00497415 -0.25 -2.2 0.4 3.18055e-15 3.18055e-15 4.77083e-15 1.13687e-13 -8.3 1 -52.6356 10.8862 7.78218 0 -4.65 -5.68434e-14 -77.1548 0.00271979 -0.0020785 0 -3.3 0 -90.0002 -6.12257e-14 1.90833e-14 -0.5 -2.15 -0.8 3.18055e-15 3.18055e-15 4.77083e-15 0 -7.75 -0.2 -85.752 -1.08034 12.1895 2.27374e-13 -3.8 0 -30.6922 0.00614493 0.000850312 1.13687e-13 -3.4 -5.68434e-14 -90.0002 -0.000671387 4.77083e-15 -0.75 -1.75 -1.85 3.18055e-15 3.18055e-15 4.77083e-15 -1.13687e-13 -7.15 -1 -85.6122 3.35694 15.0771 -2.27374e-13 -3 5.68434e-14 -70.6271 0.000791961 -0.00920214 0 -2.35 -5.68434e-14 -90.0002 -1.14301e-15 7.95139e-15 -5 17 -2.27374e-13 14.7263 -7.13027 -4.09826 -6.45 -1.13687e-13 0 -2.02102 0.776799 -1.92475 -6.45 1.13687e-13 0 -35.9931 8.04796 -14.9352 -5.68434e-14 -32.4 -2 1.29349 -40.6685 8.849 -2.84217e-14 -25.65 2 -31.9904 -13.507 6.91414 0.5 -1.5 2.65 26.137 3.27651 22.8172 0 -3.8 3.7 1.44335 31.5473 -0.531181 -2.27374e-13 -3 2.7 0.085054 15.0718 -0.0966117 0 -1.9 1.6 -1.03368e-14 0 7.95139e-16 0 -8.3 1.9 0.113398 -2.86801 -0.0023262 -2.84217e-14 -4.5 4.54747e-13 17.3225 -0.0140874 0.0195845 -1.13687e-13 -3.4 0 14.0639 -0.00711008 0.0128173 0.25 -2.2 0.4 -1.03368e-14 0 7.95139e-16 0 -8.3 1 2.19576 -1.99426 -0.0517206 0 -4.65 2.27374e-13 29.2413 0.00740388 0.0679574 -1.13687e-13 -3.3 0 21.6025 0.01879 0.0366562 0.5 -2.15 -0.8 -1.03368e-14 0 7.95139e-16 0 -7.75 -0.2 8.22124 10.6704 -1.23265 0 -3.8 0 18.6008 -0.0779036 -0.102443 1.13687e-13 -3.4 2.27374e-13 14.8528 -0.0695111 -0.0547307 0.75 -1.75 -1.85 -1.03368e-14 0 7.95139e-16 0 -7.15 -1 9.97301 5.72954 -0.714766 -5.68434e-14 -3 2.27374e-13 45.9537 -0.000486829 0.0425518 1.13687e-13 -2.35 2.27374e-13 31.9347 0.0140299 0.0225096 8 0 4.54747e-13 -32.8829 -41.5874 -39.8861 13.6239 -41.342 -6.98189 -0.746158 55.7733 1.47532 -1.13687e-13 -41 -2 -0.660488 4.68535 -14.7732 1.13687e-13 -7.5 12.5 -2.38542e-15 1.59028e-15 3.18055e-15 0 0 4 1.75951 1.19605 71.9507 -8 1.42109e-14 0 -1.7117 -42.1783 -3.49979 5.68434e-14 -45 -1 0.187736 44.7183 -0.618925 1.7053e-13 -41 -2 1.95969 8.86877 -4.73912 -8.52651e-14 -7.5 12.5 -3.363e-16 -11.4231 8.11208e-16 5.68434e-14 -6.66134e-16 4 -5.32985 9.46619 62.5111 
-277.121 84.0797 1566.42 1.37261 0.124334 -174.081 -1.13687e-13 8 -2.27374e-13 0.287196 19.6033 -2.5285 -5.68434e-14 8 2.27374e-13 1.30521 7.43291 -1.09189 -5.68434e-14 8 0 0.634178 3.7237 -0.52421 -5.68434e-14 8 -2.27374e-13 0.632726 3.7155 -0.523033 -5.68434e-14 17 0 6.5633 2.52809 -13.6037 -1.13687e-13 10.8 0 16.1205 3.33228 -32.4836 5 17 0 3.10448 -1.52694 -6.00067 6.45 1.13687e-13 2.27374e-13 0.158377 -0.553199 1.54159 6.45 0 0 57.9729 26.3704 13.5538 -1.13687e-13 -32.4 -2 -120.907 -46.9239 -140.112 -2.27374e-13 -25.65 2 18.5307 -7.08596 -37.8863 -0.5 -1.5 2.65 -21.8622 -48.9207 128.278 -5.68434e-14 -3.8 3.7 -0.0472022 48.3065 0.0090586 -2.84217e-14 -3 2.7 -0.0257195 64.8124 0.0288636 -2.27374e-13 -1.9 1.6 3.18055e-15 6.36111e-15 1.59028e-15 2.27374e-13 -8.3 1.9 -36.3407 11.4907 4.46697 -2.27374e-13 -4.5 5.68434e-14 -82.5746 -0.00246216 -0.000408772 0 -3.4 1.7053e-13 -70.6854 -0.00363298 -0.00497415 -0.25 -2.2 0.4 3.18055e-15 6.36111e-15 1.59028e-15 1.13687e-13 -8.3 1 -52.6623 10.9001 7.79772 2.27374e-13 -4.65 -5.68434e-14 -77.091 0.00271979 -0.0020785 0 -3.3 0 -90.0002 -3.57812e-14 -4.77083e-15 -0.5 -2.15 -0.8 3.18055e-15 6.36111e-15 1.59028e-15 -1.13687e-13 -7.75 -0.2 -85.7603 -1.1131 12.1855 2.27374e-13 -3.8 0 -30.7715 0.00614493 0.000850312 1.13687e-13 -3.4 -1.13687e-13 -90.0002 -0.000671387 3.18055e-15 -0.75 -1.75 -1.85 3.18055e-15 6.36111e-15 1.59028e-15 -1.13687e-13 -7.15 -1 -85.6965 3.32535 15.1024 -2.27374e-13 -3 5.68434e-14 -70.598 0.000791961 -0.00920214 -1.42109e-14 -2.35 0 -90.0002 6.65929e-15 -1.59028e-15 -5 17 -2.27374e-13 14.7949 -7.07297 -3.87126 -6.45 -1.13687e-13 2.27374e-13 -2.01754 0.815236 -1.98941 -6.45 0 2.27374e-13 -36.7882 7.54755 -14.7404 -8.52651e-14 -32.4 -2 1.00646 -39.5547 8.16978 0 -25.65 2 -31.8183 -13.4317 7.24155 0.5 -1.5 2.65 26.0081 2.84395 23.1282 0 -3.8 3.7 1.4806 31.1817 -0.533177 0 -3 2.7 0.0851846 15.1466 -0.0966457 0 -1.9 1.6 -5.96354e-15 3.18055e-15 -1.59028e-15 0 -8.3 1.9 0.101431 -2.72807 -0.00232592 -2.84217e-14 -4.5 0 15.7342 -0.0416569 0.0195845 0 -3.4 -2.27374e-13 12.906 -0.0274198 0.0172972 0.25 -2.2 0.4 -5.96354e-15 3.18055e-15 -1.59028e-15 0 -8.3 1 2.29909 -1.56413 -0.0557793 -2.84217e-14 -4.65 2.27374e-13 27.0614 -0.0258176 0.0838166 -1.13687e-13 -3.3 0 20.2324 0.00166039 0.0533713 0.5 -2.15 -0.8 -5.96354e-15 3.18055e-15 -1.59028e-15 2.84217e-14 -7.75 -0.2 8.21362 9.6067 -1.11616 0 -3.8 0 16.3694 -0.116449 -0.124201 5.68434e-14 -3.4 0 13.2621 -0.101801 -0.0667825 0.75 -1.75 -1.85 -5.96354e-15 3.18055e-15 -1.59028e-15 2.84217e-14 -7.15 -1 10.0543 5.74322 -0.723049 0 -3 2.27374e-13 43.4686 -0.0397387 0.0567245 0 -2.35 2.27374e-13 30.3673 -0.00428293 0.0422386 8 -1.42109e-14 2.27374e-13 -33.3626 -41.9808 -40.6704 13.6239 -41.342 -6.98189 -0.90167 55.6286 1.81756 -1.13687e-13 -41 -2 -0.475096 5.39036 -14.7864 0 -7.5 12.5 0 0 -3.18055e-15 0 -5.68434e-14 4 1.20064 0.84231 71.9623 -8 1.42109e-14 0 -2.04144 -43.0866 -3.84245 0 -45 -1 0.0956591 44.961 -0.351032 1.7053e-13 -41 -2 2.11644 9.72947 -4.7687 -1.42109e-13 -7.5 12.5 -5.68435e-16 -11.5882 1.62337e-15 2.84217e-14 -6.66134e-16 4 -5.71881 9.33606 62.5688 
